<svg width="20" height="20" viewBox="0 0 20 20" fill="none" xmlns="http://www.w3.org/2000/svg">
<path fill-rule="evenodd" clip-rule="evenodd" d="M9.99988 1.34807C8.89203 0.898053 7.61352 0.866642 6.42149 1.36035C5.22938 1.8541 4.34745 2.78038 3.88225 3.88201C2.78073 4.34719 1.85453 5.229 1.36077 6.42095C0.867002 7.6129 0.898307 8.89135 1.34819 9.9992C0.897795 11.1073 0.866218 12.3862 1.36008 13.5786C1.85389 14.7709 2.78036 15.6529 3.8822 16.118C4.34739 17.2195 5.22918 18.1456 6.42108 18.6394C7.61303 19.1331 8.89148 19.1018 9.99933 18.6519C11.1073 19.1021 12.386 19.1336 13.5782 18.6399C14.7704 18.1461 15.6523 17.2198 16.1175 16.1181C17.2194 15.653 18.1459 14.7711 18.6398 13.5788C19.1337 12.3866 19.1023 11.1078 18.6521 9.99974C19.1019 8.892 19.1332 7.61369 18.6396 6.42182C18.1459 5.22984 17.2197 4.34798 16.1183 3.88273C15.6532 2.7808 14.7712 1.85422 13.5789 1.36031C12.3867 0.866428 11.1079 0.897868 9.99988 1.34807ZM8.06225 4.09361L10.0006 4.89657L11.9381 4.09413C11.538 3.17764 10.8372 2.48164 9.99992 2.07417C9.16293 2.4816 8.46232 3.17741 8.06225 4.09361ZM10.8197 1.77872C11.5615 2.26638 12.1734 2.9681 12.5514 3.84076C13.4359 3.4911 14.3648 3.42771 15.2341 3.60743C14.8027 2.8985 14.1504 2.31526 13.325 1.97334C12.4996 1.63144 11.626 1.58252 10.8197 1.77872ZM15.6048 4.39609C14.7247 4.09211 13.737 4.08861 12.806 4.45367L13.6084 6.39111L15.5467 7.19405C15.9117 6.26338 15.9084 5.27602 15.6048 4.39609ZM15.2935 7.80736L13.9675 7.25808L14.7442 9.13333L15.2935 7.80736ZM15.1033 10.0003L15.9062 8.06199C16.8226 8.46204 17.5185 9.16272 17.926 9.99982C17.5185 10.8372 16.8225 11.5382 15.9059 11.9383L15.1033 10.0003ZM14.385 10.0003L13.1005 6.89895L10.0006 5.61479L6.89919 6.89931L5.61472 10L6.89879 13.1003L10.0003 14.3851L13.1005 13.1011L14.385 10.0003ZM13.9675 12.742L14.7441 10.8673L15.2932 12.1929L13.9675 12.742ZM12.7414 13.968L10.8673 14.7442L12.1924 15.2932L12.7414 13.968ZM12.8057 15.5465L13.6084 13.6089L15.5464 12.8062C15.9114 13.7371 15.908 14.7246 15.6041 15.6046C14.7241 15.9083 13.7365 15.9116 12.8057 15.5465ZM11.9378 15.9059L10.0003 15.1033L8.06174 15.9062C8.46177 16.8225 9.16239 17.5184 9.99941 17.9258C10.8367 17.5184 11.5376 16.8224 11.9378 15.9059ZM10.8193 18.2213C11.5611 17.7337 12.1731 17.032 12.5512 16.1594C13.4354 16.5091 14.3641 16.5726 15.2333 16.3932C14.8019 17.1019 14.1496 17.685 13.3243 18.0268C12.499 18.3686 11.6255 18.4175 10.8193 18.2213ZM9.17947 18.2211C8.43804 17.7335 7.82631 17.032 7.44835 16.1596C6.56421 16.5092 5.63559 16.5727 4.76653 16.3932C5.19788 17.1017 5.84999 17.6846 6.67502 18.0263C7.5001 18.3681 8.37342 18.4171 9.17947 18.2211ZM4.39559 15.6045C5.27557 15.9083 6.26304 15.9117 7.19382 15.5467L6.39092 13.6081L4.45334 12.8055C4.08816 13.7365 4.0916 14.7243 4.39559 15.6045ZM4.70661 12.1922L6.03184 12.7412L5.25559 10.867L4.70661 12.1922ZM4.89651 9.99998L4.09387 11.9375C3.17753 11.5374 2.48166 10.8365 2.07431 9.99932C2.48183 9.16245 3.17767 8.46197 4.09385 8.06202L4.89651 9.99998ZM5.25564 9.13303L6.03221 7.25839L4.70661 7.80742L5.25564 9.13303ZM6.39135 6.39144L4.45339 7.1941C4.08832 6.26316 4.09176 5.27552 4.39567 4.39543C5.27575 4.09151 6.26338 4.08805 7.19431 4.45309L6.39135 6.39144ZM7.25832 6.03236L9.13363 5.25565L7.80762 4.70635L7.25832 6.03236ZM3.84045 12.5509C3.49068 13.4354 3.42722 14.3644 3.60692 15.2337C2.89809 14.8023 2.31496 14.15 1.97312 13.3247C1.63122 12.4992 1.5824 11.6254 1.77874 10.8191C2.2663 11.5608 2.96791 12.1728 3.84045 12.5509ZM16.1596 7.44862C16.5092 6.56457 16.5727 5.63604 16.3933 4.76703C17.1019 5.19843 17.6848 5.85061 18.0265 6.67573C18.3682 7.50071 18.4172 8.37389 18.2213 9.17984C17.7336 8.43836 17.0321 7.8266 16.1596 7.44862ZM9.18006 1.77879C8.43862 2.26636 7.82688 2.96786 7.44888 3.8402C6.56459 3.49057 5.6358 3.42712 4.76661 3.60675C5.19801 2.89812 5.85022 2.31516 6.6754 1.9734C7.50057 1.63163 8.37396 1.58271 9.18006 1.77879ZM7.25787 13.9673L9.13333 14.7442L7.80715 15.2935L7.25787 13.9673ZM12.1926 4.70689L10.8676 5.25571L12.7415 6.03197L12.1926 4.70689ZM3.60699 4.76638C3.42738 5.63557 3.49084 6.56435 3.84048 7.44863C2.96816 7.82653 2.26664 8.43814 1.77901 9.17946C1.58301 8.37338 1.63199 7.50002 1.97379 6.6749C2.31557 5.84985 2.89847 5.19774 3.60699 4.76638ZM16.1593 12.5517C17.032 12.1736 17.7338 11.5616 18.2214 10.8197C18.4176 11.626 18.3687 12.4996 18.0268 13.3249C17.6849 14.1502 17.1016 14.8026 16.3927 15.2339C16.5723 14.3647 16.5089 13.436 16.1593 12.5517Z" fill="#1C2026"/>
</svg>
